<svg width="583" height="562" viewBox="0 0 583 562" fill="none" xmlns="http://www.w3.org/2000/svg">
<path d="M421.629 56.8212C421.629 87.8197 396.5 112.949 365.501 112.949C334.502 112.949 309.373 87.8197 309.373 56.8212C309.373 25.8227 334.502 0.693481 365.501 0.693481C396.5 0.693481 421.629 25.8227 421.629 56.8212Z" fill="#3478F6"/>
<path fill-rule="evenodd" clip-rule="evenodd" d="M148.239 95.8754C168.926 82.9461 194.633 80.9664 217.056 90.5761C265.49 111.334 277.644 174.444 240.384 211.705L231.143 220.945C227.433 224.657 226.383 225.726 225.687 226.529C213.471 240.634 214.432 261.831 227.873 274.771C228.639 275.509 229.781 276.477 233.814 279.836L234.115 280.086C236.382 281.978 237.948 283.283 239.43 284.616C260.593 303.649 273.143 330.444 274.218 358.889C274.294 360.879 274.294 362.919 274.294 365.872V393.588C274.294 405.212 264.87 414.636 253.246 414.636C241.622 414.636 232.198 405.212 232.198 393.588V366.262C232.198 362.774 232.195 361.575 232.153 360.478C231.507 343.412 223.978 327.334 211.28 315.912C210.463 315.18 209.544 314.408 206.866 312.177C206.664 312.009 206.465 311.843 206.269 311.68C203.11 309.048 200.686 307.027 198.68 305.097C169.108 276.631 166.993 229.998 193.866 198.97C195.689 196.865 197.92 194.635 200.828 191.728C201.009 191.547 201.192 191.364 201.377 191.179L210.617 181.939C226.818 165.737 221.534 138.294 200.474 129.268C190.724 125.09 179.545 125.951 170.55 131.573L81.9859 186.925C72.1284 193.086 59.1427 190.089 52.9819 180.232C46.821 170.375 49.8177 157.389 59.6751 151.228L148.239 95.8754Z" fill="#3478F6"/>
<path d="M566.077 161.652C577.476 159.372 584.868 148.284 582.587 136.885C580.308 125.486 569.22 118.094 557.82 120.373C507.022 130.533 468.044 171.449 460.36 222.68L429.133 430.851L25.9141 501.415C11.3192 503.968 0.670898 516.642 0.670898 531.46C0.670898 548.304 14.3265 561.96 31.1718 561.96H491.474C530.396 561.96 561.948 530.407 561.948 491.486C561.948 447.706 522.451 414.52 479.326 422.067L472.848 423.201L501.99 228.926C507.044 195.237 532.672 168.332 566.077 161.652Z" fill="#3478F6"/>
<g opacity="0.5">
<path d="M275.374 218.554C279.05 207.526 290.969 201.566 301.998 205.242C325.002 212.91 349.872 212.91 372.876 205.242C383.905 201.566 395.824 207.526 399.501 218.554C403.177 229.582 397.216 241.501 386.19 245.177C354.545 255.727 320.33 255.727 288.685 245.177C277.658 241.501 271.698 229.582 275.374 218.554Z" fill="#3478F6"/>
<path d="M155.873 322.583C164.093 330.803 164.093 344.128 155.873 352.348C124.972 383.249 83.0621 400.609 39.3619 400.609H28.7347C17.1103 400.609 7.68677 391.185 7.68677 379.561C7.68677 367.937 17.1103 358.513 28.7347 358.513H39.3619C71.8978 358.513 103.101 345.59 126.107 322.583C134.327 314.363 147.654 314.363 155.873 322.583Z" fill="#3478F6"/>
</g>
</svg>
