<svg width="683" height="641" viewBox="0 0 683 641" fill="none" xmlns="http://www.w3.org/2000/svg">
<path d="M520.958 56.1278C520.958 87.1263 495.83 112.256 464.83 112.256C433.831 112.256 408.703 87.1263 408.703 56.1278C408.703 25.1292 433.831 0 464.83 0C495.83 0 520.958 25.1292 520.958 56.1278Z" fill="#3478F6"/>
<path fill-rule="evenodd" clip-rule="evenodd" d="M247.568 95.1819C268.255 82.2526 293.963 80.273 316.385 89.8826C364.819 110.64 376.974 173.751 339.713 211.012L330.472 220.251C326.762 223.963 325.712 225.033 325.016 225.836C312.8 239.94 313.761 261.137 327.202 274.077C327.968 274.815 329.111 275.784 333.143 279.143L333.444 279.393C335.711 281.284 337.277 282.589 338.759 283.922C359.922 302.955 372.472 329.75 373.547 358.196C373.623 360.186 373.623 362.226 373.623 365.178V392.894C373.623 404.518 364.199 413.942 352.575 413.942C340.951 413.942 331.527 404.518 331.527 392.894V365.568C331.527 362.08 331.524 360.882 331.482 359.784C330.836 342.719 323.307 326.641 310.609 315.219C309.792 314.486 308.873 313.715 306.195 311.484C305.993 311.315 305.795 311.15 305.598 310.987C302.439 308.355 300.015 306.334 298.009 304.403C268.437 275.938 266.322 229.304 293.195 198.276C295.018 196.172 297.249 193.941 300.157 191.034C300.338 190.854 300.521 190.671 300.707 190.485L309.946 181.245C326.147 165.043 320.863 137.601 299.803 128.575C290.053 124.396 278.875 125.257 269.879 130.879L181.315 186.232C171.458 192.393 158.472 189.396 152.311 179.539C146.15 169.681 149.147 156.695 159.004 150.535L247.568 95.1819Z" fill="#3478F6"/>
<g opacity="0.5">
<path d="M374.703 217.861C378.38 206.833 390.298 200.873 401.327 204.549C424.331 212.217 449.202 212.217 472.206 204.549C483.235 200.873 495.153 206.833 498.83 217.861C502.506 228.889 496.545 240.808 485.519 244.484C453.874 255.033 419.659 255.033 388.014 244.484C376.988 240.808 371.027 228.889 374.703 217.861Z" fill="#3478F6"/>
</g>
<path fill-rule="evenodd" clip-rule="evenodd" d="M681.916 136.191C684.197 147.59 676.805 158.679 665.406 160.959C632.001 167.639 606.373 194.543 601.319 228.232L572.177 422.507L578.655 421.373C621.78 413.827 661.278 447.013 661.278 490.792C661.278 529.714 629.725 561.266 590.804 561.266H271.507C276.37 546.389 279 530.502 279 514C279 500.414 277.217 487.243 273.873 474.711L528.462 430.157L559.689 221.987C567.373 170.755 606.351 129.84 657.149 119.68C668.549 117.4 679.637 124.793 681.916 136.191Z" fill="#3478F6"/>
<path fill-rule="evenodd" clip-rule="evenodd" d="M255.203 351.654C263.422 343.434 263.422 330.11 255.203 321.89C246.983 313.67 233.656 313.67 225.436 321.89C202.43 344.896 171.227 357.82 138.691 357.82H128.064C123.063 357.82 118.469 359.564 114.857 362.478C118.863 362.161 122.913 362 127 362C156.493 362 184.024 370.4 207.331 384.938C224.974 376.853 241.216 365.641 255.203 351.654Z" fill="#93B7F9"/>
<path fill-rule="evenodd" clip-rule="evenodd" d="M127 387C56.8598 387 0 443.86 0 514C0 584.14 56.8598 641 127 641C197.14 641 254 584.14 254 514C254 443.86 197.14 387 127 387ZM115.627 454.765C115.627 448.222 120.931 442.918 127.474 442.918C134.017 442.918 139.321 448.222 139.321 454.765V501.679H186.235C192.778 501.679 198.082 506.983 198.082 513.526C198.082 520.069 192.778 525.373 186.235 525.373H139.321V572.287C139.321 578.83 134.017 584.134 127.474 584.134C120.931 584.134 115.627 578.83 115.627 572.287V525.373H68.7127C62.1698 525.373 56.8657 520.069 56.8657 513.526C56.8657 506.983 62.1698 501.679 68.7127 501.679H115.627V454.765Z" fill="#3478F6"/>
</svg>
